<svg width="64" height="64" viewBox="0 0 64 64" fill="none" xmlns="http://www.w3.org/2000/svg">
<path d="M4.57143 58C4.57143 59.5913 5.29388 61.1174 6.57984 62.2426C7.8658 63.3679 9.60994 64 11.4286 64H52.5714C54.3901 64 56.1342 63.3679 57.4202 62.2426C58.7061 61.1174 59.4286 59.5913 59.4286 58V16H4.57143V58ZM43.4286 26C43.4286 25.4696 43.6694 24.9609 44.098 24.5858C44.5267 24.2107 45.1081 24 45.7143 24C46.3205 24 46.9019 24.2107 47.3305 24.5858C47.7592 24.9609 48 25.4696 48 26V54C48 54.5304 47.7592 55.0391 47.3305 55.4142C46.9019 55.7893 46.3205 56 45.7143 56C45.1081 56 44.5267 55.7893 44.098 55.4142C43.6694 55.0391 43.4286 54.5304 43.4286 54V26ZM29.7143 26C29.7143 25.4696 29.9551 24.9609 30.3838 24.5858C30.8124 24.2107 31.3938 24 32 24C32.6062 24 33.1876 24.2107 33.6162 24.5858C34.0449 24.9609 34.2857 25.4696 34.2857 26V54C34.2857 54.5304 34.0449 55.0391 33.6162 55.4142C33.1876 55.7893 32.6062 56 32 56C31.3938 56 30.8124 55.7893 30.3838 55.4142C29.9551 55.0391 29.7143 54.5304 29.7143 54V26ZM16 26C16 25.4696 16.2408 24.9609 16.6695 24.5858C17.0981 24.2107 17.6795 24 18.2857 24C18.8919 24 19.4733 24.2107 19.902 24.5858C20.3306 24.9609 20.5714 25.4696 20.5714 26V54C20.5714 54.5304 20.3306 55.0391 19.902 55.4142C19.4733 55.7893 18.8919 56 18.2857 56C17.6795 56 17.0981 55.7893 16.6695 55.4142C16.2408 55.0391 16 54.5304 16 54V26ZM61.7143 4.00002H44.5714L43.2286 1.66252C42.9441 1.16279 42.5059 0.742425 41.9633 0.44872C41.4207 0.155015 40.7952 -0.000378495 40.1571 2.19159e-05H23.8286C23.192 -0.0021194 22.5676 0.152694 22.0269 0.446726C21.4862 0.740758 21.0511 1.16211 20.7714 1.66252L19.4286 4.00002H2.28571C1.67951 4.00002 1.09812 4.21073 0.66947 4.58581C0.240816 4.96088 0 5.46959 0 6.00002L0 10C0 10.5305 0.240816 11.0392 0.66947 11.4142C1.09812 11.7893 1.67951 12 2.28571 12H61.7143C62.3205 12 62.9019 11.7893 63.3305 11.4142C63.7592 11.0392 64 10.5305 64 10V6.00002C64 5.46959 63.7592 4.96088 63.3305 4.58581C62.9019 4.21073 62.3205 4.00002 61.7143 4.00002Z" fill="black"/>
</svg>
