<svg width="64" height="64" viewBox="0 0 64 64" fill="none" xmlns="http://www.w3.org/2000/svg">
<path d="M59.5637 2.0745C56.7977 -0.691499 52.3266 -0.691499 49.5606 2.0745L45.7589 5.86353L58.1238 18.2284L61.9255 14.4268C64.6915 11.6608 64.6915 7.1897 61.9255 4.4237L59.5637 2.0745ZM21.7743 29.8608C21.0039 30.6312 20.4103 31.5785 20.0693 32.6268L16.3308 43.8423C15.9645 44.9285 16.255 46.1284 17.0633 46.9493C17.8716 47.7703 19.0715 48.0481 20.1703 47.6819L31.3859 43.9434C32.4215 43.6023 33.3688 43.0087 34.1519 42.2383L55.2821 21.0955L42.9045 8.71794L21.7743 29.8608ZM12.1249 7.41704C5.43095 7.41704 0 12.848 0 19.542V51.8751C0 58.569 5.43095 64 12.1249 64H44.458C51.152 64 56.583 58.569 56.583 51.8751V39.7502C56.583 37.5146 54.7769 35.7085 52.5413 35.7085C50.3058 35.7085 48.4997 37.5146 48.4997 39.7502V51.8751C48.4997 54.1106 46.6936 55.9167 44.458 55.9167H12.1249C9.88939 55.9167 8.08328 54.1106 8.08328 51.8751V19.542C8.08328 17.3064 9.88939 15.5003 12.1249 15.5003H24.2498C26.4854 15.5003 28.2915 13.6942 28.2915 11.4587C28.2915 9.22315 26.4854 7.41704 24.2498 7.41704H12.1249Z" fill="#1E191A"/>
</svg>
